<mxfile host="app.diagrams.net" modified="2023-05-25T15:37:54.204Z" agent="Mozilla/5.0 (Windows NT 10.0; Win64; x64) AppleWebKit/537.36 (KHTML, like Gecko) Chrome/113.0.0.0 Safari/537.36" etag="aq23IrbXNBZ9AMk8Zfds" version="21.1.8" type="github">
  <diagram name="第 1 页" id="c9mtimg0R8ovgCVnEuRb">
    <mxGraphModel dx="1832" dy="836" grid="0" gridSize="10" guides="1" tooltips="1" connect="1" arrows="1" fold="1" page="0" pageScale="1" pageWidth="827" pageHeight="1169" math="0" shadow="0">
      <root>
        <mxCell id="0" />
        <mxCell id="1" parent="0" />
        <mxCell id="ozWmsJrtdOr_UJfDVnYs-9" style="edgeStyle=orthogonalEdgeStyle;rounded=1;orthogonalLoop=1;jettySize=auto;html=1;shape=flexArrow;fillColor=#97D077;gradientColor=#99CCFF;strokeWidth=4;strokeColor=none;sketch=1;curveFitting=1;jiggle=2;shadow=1;" edge="1" parent="1" source="ozWmsJrtdOr_UJfDVnYs-1" target="ozWmsJrtdOr_UJfDVnYs-3">
          <mxGeometry relative="1" as="geometry" />
        </mxCell>
        <mxCell id="ozWmsJrtdOr_UJfDVnYs-1" value="&lt;font face=&quot;Comic Sans MS&quot; style=&quot;font-size: 23px;&quot;&gt;&lt;b&gt;Spring IoC 容器&lt;/b&gt;&lt;/font&gt;" style="rounded=1;whiteSpace=wrap;html=1;strokeWidth=2;fillWeight=4;hachureGap=8;hachureAngle=45;fillColor=#d5e8d4;strokeColor=#82b366;disableMultiStroke=0;disableMultiStrokeFill=0;enumerate=0;treeMoving=0;treeFolding=0;container=0;dropTarget=0;sketchStyle=rough;glass=0;shadow=0;sketch=1;curveFitting=1;jiggle=2;" vertex="1" parent="1">
          <mxGeometry x="201" y="182" width="282" height="169" as="geometry" />
        </mxCell>
        <mxCell id="ozWmsJrtdOr_UJfDVnYs-3" value="&lt;font face=&quot;Comic Sans MS&quot;&gt;&lt;span style=&quot;font-size: 23px;&quot;&gt;&lt;b&gt;完整配置的、可用的&lt;br&gt;应用程序&lt;/b&gt;&lt;/span&gt;&lt;/font&gt;" style="rounded=1;whiteSpace=wrap;html=1;strokeWidth=2;fillWeight=4;hachureGap=8;hachureAngle=45;fillColor=#dae8fc;strokeColor=#6c8ebf;disableMultiStroke=0;disableMultiStrokeFill=0;enumerate=0;treeMoving=0;treeFolding=0;container=0;dropTarget=0;sketchStyle=rough;glass=0;shadow=0;sketch=1;curveFitting=1;jiggle=2;" vertex="1" parent="1">
          <mxGeometry x="201" y="486" width="282" height="169" as="geometry" />
        </mxCell>
        <mxCell id="ozWmsJrtdOr_UJfDVnYs-8" style="edgeStyle=orthogonalEdgeStyle;rounded=1;orthogonalLoop=1;jettySize=auto;html=1;shape=flexArrow;strokeColor=#97D077;strokeWidth=4;sketch=1;curveFitting=1;jiggle=2;shadow=1;" edge="1" parent="1" source="ozWmsJrtdOr_UJfDVnYs-5" target="ozWmsJrtdOr_UJfDVnYs-1">
          <mxGeometry relative="1" as="geometry" />
        </mxCell>
        <mxCell id="ozWmsJrtdOr_UJfDVnYs-5" value="&lt;font style=&quot;font-size: 21px;&quot;&gt;&lt;b&gt;应用程序中的各种业务对象（POJOs）&lt;/b&gt;&lt;/font&gt;" style="text;html=1;align=center;verticalAlign=middle;resizable=0;points=[];autosize=1;strokeColor=none;fillColor=none;" vertex="1" parent="1">
          <mxGeometry x="151" y="46" width="382" height="37" as="geometry" />
        </mxCell>
        <mxCell id="ozWmsJrtdOr_UJfDVnYs-7" style="edgeStyle=orthogonalEdgeStyle;rounded=0;orthogonalLoop=1;jettySize=auto;html=1;curved=1;strokeWidth=4;shape=flexArrow;strokeColor=#97D077;sketch=1;curveFitting=1;jiggle=2;shadow=1;" edge="1" parent="1" source="ozWmsJrtdOr_UJfDVnYs-6">
          <mxGeometry relative="1" as="geometry">
            <mxPoint x="200" y="260" as="targetPoint" />
          </mxGeometry>
        </mxCell>
        <mxCell id="ozWmsJrtdOr_UJfDVnYs-6" value="&lt;font style=&quot;font-size: 21px;&quot;&gt;&lt;b&gt;配置元数据&lt;br&gt;（Configuration Metadata）&lt;br&gt;&lt;/b&gt;&lt;/font&gt;" style="text;html=1;align=center;verticalAlign=middle;resizable=0;points=[];autosize=1;strokeColor=none;fillColor=none;strokeWidth=6;" vertex="1" parent="1">
          <mxGeometry x="-185" y="229" width="295" height="62" as="geometry" />
        </mxCell>
        <mxCell id="ozWmsJrtdOr_UJfDVnYs-11" value="&lt;font face=&quot;Comic Sans MS&quot; style=&quot;font-size: 21px;&quot;&gt;&lt;b&gt;made by god23bin&lt;/b&gt;&lt;/font&gt;" style="text;html=1;align=center;verticalAlign=middle;resizable=0;points=[];autosize=1;strokeColor=none;fillColor=none;" vertex="1" parent="1">
          <mxGeometry x="-130" y="560" width="202" height="37" as="geometry" />
        </mxCell>
        <mxCell id="ozWmsJrtdOr_UJfDVnYs-12" value="&lt;span style=&quot;font-size: 21px;&quot;&gt;&lt;b&gt;组合产生下面的&lt;/b&gt;&lt;/span&gt;" style="text;html=1;align=center;verticalAlign=middle;resizable=0;points=[];autosize=1;strokeColor=none;fillColor=none;" vertex="1" parent="1">
          <mxGeometry x="358" y="393" width="165" height="37" as="geometry" />
        </mxCell>
      </root>
    </mxGraphModel>
  </diagram>
</mxfile>
